<mxfile host="app.diagrams.net" agent="Mozilla/5.0 (Windows NT 10.0; Win64; x64) AppleWebKit/537.36 (KHTML, like Gecko) Chrome/133.0.0.0 Safari/537.36 Edg/133.0.0.0/8mqHiSuL-56" version="26.0.13">
  <diagram name="Page-1" id="UYFjqTbqg0fuEyXa1Zaf">
    <mxGraphModel dx="2227" dy="1180" grid="1" gridSize="10" guides="1" tooltips="1" connect="1" arrows="1" fold="1" page="1" pageScale="1" pageWidth="827" pageHeight="1169" math="0" shadow="0">
      <root>
        <mxCell id="0" />
        <mxCell id="1" parent="0" />
        <mxCell id="T6drmKnqL6TJFt0mdkRS-83" value="" style="group" vertex="1" connectable="0" parent="1">
          <mxGeometry x="14" y="40" width="1136" height="1322" as="geometry" />
        </mxCell>
        <mxCell id="T6drmKnqL6TJFt0mdkRS-11" style="edgeStyle=orthogonalEdgeStyle;rounded=0;orthogonalLoop=1;jettySize=auto;html=1;exitX=0.5;exitY=1;exitDx=0;exitDy=0;strokeWidth=2;" edge="1" parent="T6drmKnqL6TJFt0mdkRS-83" source="T6drmKnqL6TJFt0mdkRS-1" target="T6drmKnqL6TJFt0mdkRS-10">
          <mxGeometry relative="1" as="geometry" />
        </mxCell>
        <mxCell id="T6drmKnqL6TJFt0mdkRS-12" style="edgeStyle=orthogonalEdgeStyle;rounded=0;orthogonalLoop=1;jettySize=auto;html=1;exitX=0.75;exitY=1;exitDx=0;exitDy=0;entryX=0.75;entryY=0;entryDx=0;entryDy=0;strokeWidth=2;" edge="1" parent="T6drmKnqL6TJFt0mdkRS-83" source="T6drmKnqL6TJFt0mdkRS-1" target="T6drmKnqL6TJFt0mdkRS-10">
          <mxGeometry relative="1" as="geometry" />
        </mxCell>
        <mxCell id="T6drmKnqL6TJFt0mdkRS-13" style="edgeStyle=orthogonalEdgeStyle;rounded=0;orthogonalLoop=1;jettySize=auto;html=1;exitX=0.25;exitY=1;exitDx=0;exitDy=0;entryX=0.25;entryY=0;entryDx=0;entryDy=0;strokeWidth=2;" edge="1" parent="T6drmKnqL6TJFt0mdkRS-83" source="T6drmKnqL6TJFt0mdkRS-1" target="T6drmKnqL6TJFt0mdkRS-10">
          <mxGeometry relative="1" as="geometry" />
        </mxCell>
        <mxCell id="T6drmKnqL6TJFt0mdkRS-15" style="edgeStyle=orthogonalEdgeStyle;rounded=0;orthogonalLoop=1;jettySize=auto;html=1;exitX=0.25;exitY=1;exitDx=0;exitDy=0;entryX=0.25;entryY=0;entryDx=0;entryDy=0;strokeWidth=2;" edge="1" parent="T6drmKnqL6TJFt0mdkRS-83" source="T6drmKnqL6TJFt0mdkRS-10" target="T6drmKnqL6TJFt0mdkRS-14">
          <mxGeometry relative="1" as="geometry" />
        </mxCell>
        <mxCell id="T6drmKnqL6TJFt0mdkRS-16" style="edgeStyle=orthogonalEdgeStyle;rounded=0;orthogonalLoop=1;jettySize=auto;html=1;exitX=0.5;exitY=1;exitDx=0;exitDy=0;entryX=0.5;entryY=0;entryDx=0;entryDy=0;strokeWidth=2;" edge="1" parent="T6drmKnqL6TJFt0mdkRS-83" source="T6drmKnqL6TJFt0mdkRS-10" target="T6drmKnqL6TJFt0mdkRS-14">
          <mxGeometry relative="1" as="geometry" />
        </mxCell>
        <mxCell id="T6drmKnqL6TJFt0mdkRS-17" style="edgeStyle=orthogonalEdgeStyle;rounded=0;orthogonalLoop=1;jettySize=auto;html=1;exitX=0.75;exitY=1;exitDx=0;exitDy=0;entryX=0.75;entryY=0;entryDx=0;entryDy=0;strokeWidth=2;" edge="1" parent="T6drmKnqL6TJFt0mdkRS-83" source="T6drmKnqL6TJFt0mdkRS-10" target="T6drmKnqL6TJFt0mdkRS-14">
          <mxGeometry relative="1" as="geometry" />
        </mxCell>
        <mxCell id="T6drmKnqL6TJFt0mdkRS-10" value="API Gateway and Load Balancer&lt;br&gt;(Request Routing and Traffic Management)" style="rounded=0;whiteSpace=wrap;html=1;fontSize=20;fontStyle=1;verticalAlign=middle;strokeWidth=2;labelPosition=center;verticalLabelPosition=middle;align=center;labelBackgroundColor=none;labelBorderColor=none;textShadow=0;" vertex="1" parent="T6drmKnqL6TJFt0mdkRS-83">
          <mxGeometry y="240" width="1136" height="80" as="geometry" />
        </mxCell>
        <mxCell id="T6drmKnqL6TJFt0mdkRS-71" style="edgeStyle=orthogonalEdgeStyle;rounded=0;orthogonalLoop=1;jettySize=auto;html=1;exitX=0.25;exitY=1;exitDx=0;exitDy=0;entryX=0.25;entryY=0;entryDx=0;entryDy=0;strokeWidth=2;startArrow=classic;startFill=1;" edge="1" parent="T6drmKnqL6TJFt0mdkRS-83" source="T6drmKnqL6TJFt0mdkRS-14" target="T6drmKnqL6TJFt0mdkRS-55">
          <mxGeometry relative="1" as="geometry" />
        </mxCell>
        <mxCell id="T6drmKnqL6TJFt0mdkRS-72" style="edgeStyle=orthogonalEdgeStyle;rounded=0;orthogonalLoop=1;jettySize=auto;html=1;exitX=0.5;exitY=1;exitDx=0;exitDy=0;entryX=0.5;entryY=0;entryDx=0;entryDy=0;strokeWidth=2;startArrow=classic;startFill=1;" edge="1" parent="T6drmKnqL6TJFt0mdkRS-83" source="T6drmKnqL6TJFt0mdkRS-14" target="T6drmKnqL6TJFt0mdkRS-55">
          <mxGeometry relative="1" as="geometry" />
        </mxCell>
        <mxCell id="T6drmKnqL6TJFt0mdkRS-73" style="edgeStyle=orthogonalEdgeStyle;rounded=0;orthogonalLoop=1;jettySize=auto;html=1;exitX=0.75;exitY=1;exitDx=0;exitDy=0;entryX=0.75;entryY=0;entryDx=0;entryDy=0;strokeWidth=2;startArrow=classic;startFill=1;" edge="1" parent="T6drmKnqL6TJFt0mdkRS-83" source="T6drmKnqL6TJFt0mdkRS-14" target="T6drmKnqL6TJFt0mdkRS-55">
          <mxGeometry relative="1" as="geometry" />
        </mxCell>
        <mxCell id="T6drmKnqL6TJFt0mdkRS-14" value="Core ML-Chain Services" style="rounded=0;whiteSpace=wrap;html=1;fontSize=20;fontStyle=1;verticalAlign=top;strokeWidth=2;labelPosition=center;verticalLabelPosition=middle;align=center;labelBackgroundColor=none;labelBorderColor=none;textShadow=0;" vertex="1" parent="T6drmKnqL6TJFt0mdkRS-83">
          <mxGeometry y="400" width="1136" height="200" as="geometry" />
        </mxCell>
        <mxCell id="T6drmKnqL6TJFt0mdkRS-44" value="&lt;font style=&quot;font-size: 16px;&quot;&gt;D-PRA Service Layer&lt;/font&gt;" style="rounded=0;whiteSpace=wrap;html=1;fontSize=20;fontStyle=1;shadow=0;glass=0;strokeWidth=2;verticalAlign=middle;" vertex="1" parent="T6drmKnqL6TJFt0mdkRS-83">
          <mxGeometry x="42.6" y="436" width="198.79999999999998" height="60" as="geometry" />
        </mxCell>
        <mxCell id="T6drmKnqL6TJFt0mdkRS-45" value="&lt;font style=&quot;font-size: 16px;&quot;&gt;RL-ARM Service Layer&lt;/font&gt;" style="rounded=0;whiteSpace=wrap;html=1;fontSize=20;fontStyle=1;shadow=0;glass=0;strokeWidth=2;verticalAlign=middle;" vertex="1" parent="T6drmKnqL6TJFt0mdkRS-83">
          <mxGeometry x="326.59999999999997" y="436" width="198.79999999999998" height="60" as="geometry" />
        </mxCell>
        <mxCell id="T6drmKnqL6TJFt0mdkRS-46" value="&lt;font style=&quot;font-size: 16px;&quot;&gt;FL-DMT Service Layer&lt;/font&gt;" style="rounded=0;whiteSpace=wrap;html=1;fontSize=20;fontStyle=1;shadow=0;glass=0;strokeWidth=2;verticalAlign=middle;" vertex="1" parent="T6drmKnqL6TJFt0mdkRS-83">
          <mxGeometry x="610.6" y="436" width="198.79999999999998" height="60" as="geometry" />
        </mxCell>
        <mxCell id="T6drmKnqL6TJFt0mdkRS-47" value="&lt;font style=&quot;font-size: 16px;&quot;&gt;MOO-PT Service Layer&lt;/font&gt;" style="rounded=0;whiteSpace=wrap;html=1;fontSize=20;fontStyle=1;shadow=0;glass=0;strokeWidth=2;verticalAlign=middle;" vertex="1" parent="T6drmKnqL6TJFt0mdkRS-83">
          <mxGeometry x="894.6000000000001" y="436" width="198.79999999999998" height="60" as="geometry" />
        </mxCell>
        <mxCell id="T6drmKnqL6TJFt0mdkRS-49" value="&lt;span style=&quot;font-size: 12px;&quot;&gt;- RL Agent&lt;/span&gt;&lt;div&gt;&lt;span style=&quot;font-size: 12px;&quot;&gt;- Policy Manager&lt;/span&gt;&lt;/div&gt;&lt;div&gt;&lt;span style=&quot;font-size: 12px;&quot;&gt;- Action Execution&lt;/span&gt;&lt;/div&gt;" style="rounded=0;whiteSpace=wrap;html=1;fontSize=20;fontStyle=1;shadow=0;glass=0;strokeWidth=2;verticalAlign=middle;" vertex="1" parent="T6drmKnqL6TJFt0mdkRS-83">
          <mxGeometry x="326.59999999999997" y="496" width="198.79999999999998" height="90" as="geometry" />
        </mxCell>
        <mxCell id="T6drmKnqL6TJFt0mdkRS-52" value="&lt;span style=&quot;color: light-dark(rgb(0, 0, 0), rgb(255, 255, 255)); background-color: transparent; font-size: 12px;&quot;&gt;- Load Predictor&lt;/span&gt;&lt;br style=&quot;font-size: 16px;&quot;&gt;&lt;span style=&quot;color: light-dark(rgb(0, 0, 0), rgb(255, 255, 255)); background-color: transparent; font-size: 12px;&quot;&gt;- Resource allocator&lt;/span&gt;" style="rounded=0;whiteSpace=wrap;html=1;fontSize=20;fontStyle=1;shadow=0;glass=0;strokeWidth=2;verticalAlign=middle;" vertex="1" parent="T6drmKnqL6TJFt0mdkRS-83">
          <mxGeometry x="42.6" y="496" width="198.79999999999998" height="90" as="geometry" />
        </mxCell>
        <mxCell id="T6drmKnqL6TJFt0mdkRS-53" value="&lt;span style=&quot;font-size: 12px;&quot;&gt;- Fed. trainer&lt;/span&gt;&lt;div&gt;&lt;span style=&quot;font-size: 12px;&quot;&gt;- Model Aggregator&lt;/span&gt;&lt;/div&gt;&lt;div&gt;&lt;span style=&quot;font-size: 12px;&quot;&gt;- Update Distributor&lt;/span&gt;&lt;/div&gt;" style="rounded=0;whiteSpace=wrap;html=1;fontSize=20;fontStyle=1;shadow=0;glass=0;strokeWidth=2;verticalAlign=middle;" vertex="1" parent="T6drmKnqL6TJFt0mdkRS-83">
          <mxGeometry x="610.6" y="496" width="198.79999999999998" height="90" as="geometry" />
        </mxCell>
        <mxCell id="T6drmKnqL6TJFt0mdkRS-54" value="&lt;span style=&quot;font-size: 12px;&quot;&gt;- Optimizer&lt;/span&gt;&lt;div&gt;&lt;span style=&quot;font-size: 12px;&quot;&gt;- Trade-off Analysis&lt;/span&gt;&lt;/div&gt;&lt;div&gt;&lt;span style=&quot;font-size: 12px;&quot;&gt;- Decision Engine&lt;/span&gt;&lt;/div&gt;" style="rounded=0;whiteSpace=wrap;html=1;fontSize=20;fontStyle=1;shadow=0;glass=0;strokeWidth=2;verticalAlign=middle;" vertex="1" parent="T6drmKnqL6TJFt0mdkRS-83">
          <mxGeometry x="894.6000000000001" y="496" width="198.79999999999998" height="90" as="geometry" />
        </mxCell>
        <mxCell id="T6drmKnqL6TJFt0mdkRS-76" style="edgeStyle=orthogonalEdgeStyle;rounded=0;orthogonalLoop=1;jettySize=auto;html=1;exitX=0.25;exitY=1;exitDx=0;exitDy=0;entryX=0.25;entryY=0;entryDx=0;entryDy=0;startArrow=classic;startFill=1;strokeWidth=2;" edge="1" parent="T6drmKnqL6TJFt0mdkRS-83" source="T6drmKnqL6TJFt0mdkRS-55" target="T6drmKnqL6TJFt0mdkRS-60">
          <mxGeometry relative="1" as="geometry" />
        </mxCell>
        <mxCell id="T6drmKnqL6TJFt0mdkRS-77" style="edgeStyle=orthogonalEdgeStyle;rounded=0;orthogonalLoop=1;jettySize=auto;html=1;exitX=0.5;exitY=1;exitDx=0;exitDy=0;startArrow=classic;startFill=1;strokeWidth=2;" edge="1" parent="T6drmKnqL6TJFt0mdkRS-83" source="T6drmKnqL6TJFt0mdkRS-55" target="T6drmKnqL6TJFt0mdkRS-60">
          <mxGeometry relative="1" as="geometry" />
        </mxCell>
        <mxCell id="T6drmKnqL6TJFt0mdkRS-78" style="edgeStyle=orthogonalEdgeStyle;rounded=0;orthogonalLoop=1;jettySize=auto;html=1;exitX=0.75;exitY=1;exitDx=0;exitDy=0;entryX=0.75;entryY=0;entryDx=0;entryDy=0;startArrow=classic;startFill=1;strokeWidth=2;" edge="1" parent="T6drmKnqL6TJFt0mdkRS-83" source="T6drmKnqL6TJFt0mdkRS-55" target="T6drmKnqL6TJFt0mdkRS-60">
          <mxGeometry relative="1" as="geometry" />
        </mxCell>
        <mxCell id="T6drmKnqL6TJFt0mdkRS-55" value="Shard Service Layer" style="rounded=0;whiteSpace=wrap;html=1;fontSize=20;fontStyle=1;verticalAlign=top;strokeWidth=2;labelBorderColor=none;textShadow=0;glass=0;shadow=0;" vertex="1" parent="T6drmKnqL6TJFt0mdkRS-83">
          <mxGeometry y="680" width="1136" height="160" as="geometry" />
        </mxCell>
        <mxCell id="T6drmKnqL6TJFt0mdkRS-56" value="&lt;font style=&quot;font-size: 16px;&quot;&gt;Data Pipeline&lt;/font&gt;" style="rounded=0;whiteSpace=wrap;html=1;fontSize=20;fontStyle=1;shadow=0;glass=0;strokeWidth=2;" vertex="1" parent="T6drmKnqL6TJFt0mdkRS-83">
          <mxGeometry x="42.6" y="730" width="198.79999999999998" height="80" as="geometry" />
        </mxCell>
        <mxCell id="T6drmKnqL6TJFt0mdkRS-57" value="&lt;font style=&quot;font-size: 16px;&quot;&gt;Model Management&lt;/font&gt;" style="rounded=0;whiteSpace=wrap;html=1;fontSize=20;fontStyle=1;shadow=0;glass=0;strokeWidth=2;" vertex="1" parent="T6drmKnqL6TJFt0mdkRS-83">
          <mxGeometry x="326.59999999999997" y="730" width="198.79999999999998" height="80" as="geometry" />
        </mxCell>
        <mxCell id="T6drmKnqL6TJFt0mdkRS-58" value="&lt;span style=&quot;font-size: 16px;&quot;&gt;Resource Monitor&lt;/span&gt;" style="rounded=0;whiteSpace=wrap;html=1;fontSize=20;fontStyle=1;shadow=0;glass=0;strokeWidth=2;" vertex="1" parent="T6drmKnqL6TJFt0mdkRS-83">
          <mxGeometry x="610.6" y="730" width="198.79999999999998" height="80" as="geometry" />
        </mxCell>
        <mxCell id="T6drmKnqL6TJFt0mdkRS-59" value="&lt;font style=&quot;font-size: 16px;&quot;&gt;Performance Analytics&lt;/font&gt;" style="rounded=0;whiteSpace=wrap;html=1;fontSize=20;fontStyle=1;shadow=0;glass=0;strokeWidth=2;" vertex="1" parent="T6drmKnqL6TJFt0mdkRS-83">
          <mxGeometry x="894.6000000000001" y="730" width="198.79999999999998" height="80" as="geometry" />
        </mxCell>
        <mxCell id="T6drmKnqL6TJFt0mdkRS-79" style="edgeStyle=orthogonalEdgeStyle;rounded=0;orthogonalLoop=1;jettySize=auto;html=1;exitX=0.25;exitY=1;exitDx=0;exitDy=0;entryX=0.25;entryY=0;entryDx=0;entryDy=0;startArrow=classic;startFill=1;strokeWidth=2;" edge="1" parent="T6drmKnqL6TJFt0mdkRS-83" source="T6drmKnqL6TJFt0mdkRS-60" target="T6drmKnqL6TJFt0mdkRS-65">
          <mxGeometry relative="1" as="geometry" />
        </mxCell>
        <mxCell id="T6drmKnqL6TJFt0mdkRS-80" style="edgeStyle=orthogonalEdgeStyle;rounded=0;orthogonalLoop=1;jettySize=auto;html=1;exitX=0.5;exitY=1;exitDx=0;exitDy=0;entryX=0.5;entryY=0;entryDx=0;entryDy=0;startArrow=classic;startFill=1;strokeWidth=2;" edge="1" parent="T6drmKnqL6TJFt0mdkRS-83" source="T6drmKnqL6TJFt0mdkRS-60" target="T6drmKnqL6TJFt0mdkRS-65">
          <mxGeometry relative="1" as="geometry" />
        </mxCell>
        <mxCell id="T6drmKnqL6TJFt0mdkRS-81" style="edgeStyle=orthogonalEdgeStyle;rounded=0;orthogonalLoop=1;jettySize=auto;html=1;exitX=0.75;exitY=1;exitDx=0;exitDy=0;entryX=0.75;entryY=0;entryDx=0;entryDy=0;startArrow=classic;startFill=1;strokeWidth=2;" edge="1" parent="T6drmKnqL6TJFt0mdkRS-83" source="T6drmKnqL6TJFt0mdkRS-60" target="T6drmKnqL6TJFt0mdkRS-65">
          <mxGeometry relative="1" as="geometry" />
        </mxCell>
        <mxCell id="T6drmKnqL6TJFt0mdkRS-60" value="Infrastructure Layer" style="rounded=0;whiteSpace=wrap;html=1;fontSize=20;fontStyle=1;verticalAlign=top;strokeWidth=2;labelBorderColor=none;textShadow=0;glass=0;shadow=0;" vertex="1" parent="T6drmKnqL6TJFt0mdkRS-83">
          <mxGeometry y="920" width="1136" height="160" as="geometry" />
        </mxCell>
        <mxCell id="T6drmKnqL6TJFt0mdkRS-61" value="&lt;font style=&quot;font-size: 16px;&quot;&gt;Compute Cluster&lt;/font&gt;" style="rounded=0;whiteSpace=wrap;html=1;fontSize=20;fontStyle=1;shadow=0;glass=0;strokeWidth=2;" vertex="1" parent="T6drmKnqL6TJFt0mdkRS-83">
          <mxGeometry x="42.6" y="970" width="198.79999999999998" height="80" as="geometry" />
        </mxCell>
        <mxCell id="T6drmKnqL6TJFt0mdkRS-62" value="&lt;font style=&quot;font-size: 16px;&quot;&gt;Storage System&lt;/font&gt;" style="rounded=0;whiteSpace=wrap;html=1;fontSize=20;fontStyle=1;shadow=0;glass=0;strokeWidth=2;" vertex="1" parent="T6drmKnqL6TJFt0mdkRS-83">
          <mxGeometry x="326.59999999999997" y="970" width="198.79999999999998" height="80" as="geometry" />
        </mxCell>
        <mxCell id="T6drmKnqL6TJFt0mdkRS-63" value="&lt;font style=&quot;font-size: 16px;&quot;&gt;Network Manager&lt;/font&gt;" style="rounded=0;whiteSpace=wrap;html=1;fontSize=20;fontStyle=1;shadow=0;glass=0;strokeWidth=2;" vertex="1" parent="T6drmKnqL6TJFt0mdkRS-83">
          <mxGeometry x="610.6" y="970" width="198.79999999999998" height="80" as="geometry" />
        </mxCell>
        <mxCell id="T6drmKnqL6TJFt0mdkRS-64" value="&lt;font style=&quot;font-size: 16px;&quot;&gt;Security Services&lt;/font&gt;" style="rounded=0;whiteSpace=wrap;html=1;fontSize=20;fontStyle=1;shadow=0;glass=0;strokeWidth=2;" vertex="1" parent="T6drmKnqL6TJFt0mdkRS-83">
          <mxGeometry x="894.6000000000001" y="970" width="198.79999999999998" height="80" as="geometry" />
        </mxCell>
        <mxCell id="T6drmKnqL6TJFt0mdkRS-65" value="Data Storage Layer" style="rounded=0;whiteSpace=wrap;html=1;fontSize=20;fontStyle=1;verticalAlign=top;strokeWidth=2;labelBorderColor=none;textShadow=0;glass=0;shadow=0;" vertex="1" parent="T6drmKnqL6TJFt0mdkRS-83">
          <mxGeometry y="1162" width="1136" height="160" as="geometry" />
        </mxCell>
        <mxCell id="T6drmKnqL6TJFt0mdkRS-66" value="&lt;font style=&quot;font-size: 16px;&quot;&gt;Blockchain DB&lt;/font&gt;" style="rounded=0;whiteSpace=wrap;html=1;fontSize=20;fontStyle=1;shadow=0;glass=0;strokeWidth=2;" vertex="1" parent="T6drmKnqL6TJFt0mdkRS-83">
          <mxGeometry x="42.6" y="1212" width="198.79999999999998" height="80" as="geometry" />
        </mxCell>
        <mxCell id="T6drmKnqL6TJFt0mdkRS-67" value="&lt;font style=&quot;font-size: 16px;&quot;&gt;Model Store&lt;/font&gt;" style="rounded=0;whiteSpace=wrap;html=1;fontSize=20;fontStyle=1;shadow=0;glass=0;strokeWidth=2;" vertex="1" parent="T6drmKnqL6TJFt0mdkRS-83">
          <mxGeometry x="326.59999999999997" y="1212" width="198.79999999999998" height="80" as="geometry" />
        </mxCell>
        <mxCell id="T6drmKnqL6TJFt0mdkRS-68" value="&lt;font style=&quot;font-size: 16px;&quot;&gt;Metrics Store&lt;/font&gt;" style="rounded=0;whiteSpace=wrap;html=1;fontSize=20;fontStyle=1;shadow=0;glass=0;strokeWidth=2;" vertex="1" parent="T6drmKnqL6TJFt0mdkRS-83">
          <mxGeometry x="610.6" y="1212" width="198.79999999999998" height="80" as="geometry" />
        </mxCell>
        <mxCell id="T6drmKnqL6TJFt0mdkRS-69" value="&lt;font style=&quot;font-size: 16px;&quot;&gt;Transaction Store&lt;/font&gt;" style="rounded=0;whiteSpace=wrap;html=1;fontSize=20;fontStyle=1;shadow=0;glass=0;strokeWidth=2;" vertex="1" parent="T6drmKnqL6TJFt0mdkRS-83">
          <mxGeometry x="894.6000000000001" y="1212" width="198.79999999999998" height="80" as="geometry" />
        </mxCell>
        <mxCell id="T6drmKnqL6TJFt0mdkRS-82" value="" style="group" vertex="1" connectable="0" parent="T6drmKnqL6TJFt0mdkRS-83">
          <mxGeometry width="1136" height="160" as="geometry" />
        </mxCell>
        <mxCell id="T6drmKnqL6TJFt0mdkRS-1" value="External Interfaces" style="rounded=0;whiteSpace=wrap;html=1;fontSize=20;fontStyle=1;verticalAlign=top;strokeWidth=2;labelBorderColor=none;textShadow=0;glass=0;shadow=0;" vertex="1" parent="T6drmKnqL6TJFt0mdkRS-82">
          <mxGeometry width="1136" height="160" as="geometry" />
        </mxCell>
        <mxCell id="T6drmKnqL6TJFt0mdkRS-2" value="&lt;font style=&quot;font-size: 16px;&quot;&gt;Blockchain Network&lt;/font&gt;" style="rounded=0;whiteSpace=wrap;html=1;fontSize=20;fontStyle=1;shadow=0;glass=0;strokeWidth=2;" vertex="1" parent="T6drmKnqL6TJFt0mdkRS-82">
          <mxGeometry x="42.6" y="50" width="198.79999999999998" height="80" as="geometry" />
        </mxCell>
        <mxCell id="T6drmKnqL6TJFt0mdkRS-7" value="&lt;font style=&quot;font-size: 16px;&quot;&gt;Smart Contract Interface&lt;/font&gt;" style="rounded=0;whiteSpace=wrap;html=1;fontSize=20;fontStyle=1;shadow=0;glass=0;strokeWidth=2;" vertex="1" parent="T6drmKnqL6TJFt0mdkRS-82">
          <mxGeometry x="326.59999999999997" y="50" width="198.79999999999998" height="80" as="geometry" />
        </mxCell>
        <mxCell id="T6drmKnqL6TJFt0mdkRS-8" value="&lt;font style=&quot;font-size: 16px;&quot;&gt;User/Client Application&lt;/font&gt;" style="rounded=0;whiteSpace=wrap;html=1;fontSize=20;fontStyle=1;shadow=0;glass=0;strokeWidth=2;" vertex="1" parent="T6drmKnqL6TJFt0mdkRS-82">
          <mxGeometry x="610.6" y="50" width="198.79999999999998" height="80" as="geometry" />
        </mxCell>
        <mxCell id="T6drmKnqL6TJFt0mdkRS-9" value="&lt;font style=&quot;font-size: 16px;&quot;&gt;External Services&lt;/font&gt;" style="rounded=0;whiteSpace=wrap;html=1;fontSize=20;fontStyle=1;shadow=0;glass=0;strokeWidth=2;" vertex="1" parent="T6drmKnqL6TJFt0mdkRS-82">
          <mxGeometry x="894.6000000000001" y="50" width="198.79999999999998" height="80" as="geometry" />
        </mxCell>
      </root>
    </mxGraphModel>
  </diagram>
</mxfile>
